# Blender v2.74 (sub 0) OBJ File: 'lamp.blend'
# www.blender.org
v -0.727953 -0.767756 -0.727953
v -0.340441 -0.219732 -0.340441
v -0.184245 -0.219732 -0.444808
v -0.184245 -0.219732 -0.444808
v -0.393965 -0.767756 -0.951117
v 0.000000 -0.767756 -1.029481
v 0.393965 -0.767756 -0.951117
v 0.727953 -0.767756 -0.727953
v 0.951117 -0.767756 -0.393965
v 1.029481 -0.767756 0.000000
v 0.951117 -0.767756 0.393966
v 0.727953 -0.767756 0.727953
v 0.393965 -0.767756 0.951117
v 0.000000 -0.767756 1.029481
v -0.393965 -0.767756 0.951117
v -0.727953 -0.767756 0.727953
v -0.951117 -0.767756 0.393966
v -1.029481 -0.767756 -0.000000
v -0.951117 -0.767756 -0.393966
v -0.444808 -0.219732 -0.184246
v -0.340441 -0.219732 -0.340441
v -0.000000 -0.219732 -0.481457
v 0.184245 -0.219732 -0.444808
v 0.340441 -0.219731 -0.340441
v 0.340441 -0.219732 -0.340441
v 0.444808 -0.219731 -0.184245
v 0.444808 -0.219731 -0.184245
v 0.481456 -0.219731 0.000000
v 0.481456 -0.219731 0.000000
v 0.444808 -0.219731 0.184245
v 0.444808 -0.219731 0.184246
v 0.340441 -0.219731 0.340441
v 0.340441 -0.219732 0.340441
v 0.184245 -0.219731 0.444808
v 0.184245 -0.219732 0.444808
v 0.000000 -0.219731 0.481456
v -0.000000 -0.219732 0.481456
v -0.184245 -0.219731 0.444808
v -0.184246 -0.219732 0.444808
v -0.340441 -0.219731 0.340441
v -0.340441 -0.219732 0.340441
v -0.444808 -0.219731 0.184245
v -0.444808 -0.219732 0.184245
v -0.481457 -0.219732 -0.000000
v -0.444808 -0.219732 -0.184245
v -0.500000 -0.126508 0.000000
v -0.461940 -0.126508 -0.191342
v -0.461940 -0.126508 0.191341
v -0.461940 0.064834 0.000000
v -0.426777 0.064834 -0.176777
v -0.353553 -0.126508 -0.353553
v -0.353553 -0.126508 0.353553
v -0.426777 0.064834 0.176776
v -0.353553 0.227046 0.000000
v -0.326641 0.227046 -0.135299
v -0.326641 0.064834 -0.326641
v -0.191342 -0.126508 -0.461940
v -0.191342 -0.126508 0.461939
v -0.326641 0.064834 0.326640
v -0.326641 0.227046 0.135299
v -0.191342 0.335432 0.000000
v -0.176777 0.335432 -0.073223
v -0.250000 0.227046 -0.250000
v -0.176777 0.064834 -0.426777
v -0.000000 -0.126508 -0.500000
v -0.000000 -0.126508 0.500000
v -0.176777 0.064834 0.426776
v -0.250000 0.227046 0.250000
v -0.176777 0.335432 0.073223
v -0.000000 0.373492 0.000000
v -0.135299 0.335432 -0.135299
v -0.135299 0.227046 -0.326641
v -0.000000 0.064834 -0.461940
v 0.191342 -0.126508 -0.461940
v 0.191341 -0.126508 0.461940
v -0.000000 0.064834 0.461940
v -0.135299 0.227046 0.326641
v -0.135299 0.335432 0.135299
v -0.073223 0.335432 -0.176777
v -0.000000 0.227046 -0.353553
v 0.176777 0.064834 -0.426777
v 0.353553 -0.126508 -0.353553
v 0.353553 -0.126508 0.353553
v 0.176776 0.064834 0.426777
v -0.000000 0.227046 0.353553
v -0.073223 0.335432 0.176777
v -0.000000 0.335432 -0.191342
v 0.135299 0.227046 -0.326641
v 0.326641 0.064834 -0.326641
v 0.461940 -0.126508 -0.191342
v 0.461939 -0.126508 0.191342
v 0.326640 0.064834 0.326641
v 0.135299 0.227046 0.326641
v -0.000000 0.335432 0.191342
v 0.073223 0.335432 -0.176777
v 0.250000 0.227046 -0.250000
v 0.426777 0.064834 -0.176777
v 0.500000 -0.126508 0.000000
v 0.426776 0.064834 0.176777
v 0.250000 0.227046 0.250000
v 0.073223 0.335432 0.176777
v 0.135299 0.335432 -0.135299
v 0.326641 0.227046 -0.135299
v 0.461940 0.064834 0.000000
v 0.326640 0.227046 0.135299
v 0.135299 0.335432 0.135299
v 0.176777 0.335432 -0.073223
v 0.353553 0.227046 0.000000
v 0.176777 0.335432 0.073223
v 0.191342 0.335432 0.000000
vn -0.505400 0.646800 -0.571200
vn -0.543500 0.609300 -0.577400
vn -0.139300 0.700200 -0.700200
vn 0.139300 0.700200 -0.700200
vn 0.396600 0.700200 -0.593600
vn 0.593600 0.700200 -0.396600
vn 0.700200 0.700200 -0.139300
vn 0.700200 0.700200 0.139300
vn 0.593600 0.700200 0.396600
vn 0.396600 0.700200 0.593600
vn 0.139300 0.700200 0.700200
vn -0.139300 0.700200 0.700200
vn -0.396600 0.700200 0.593600
vn -0.593600 0.700200 0.396600
vn -0.700200 0.700200 0.139300
vn -0.406500 0.818900 0.405300
vn -0.962600 -0.191500 -0.191500
vn -0.962600 -0.191500 0.191500
vn -0.962600 0.191500 -0.191500
vn -0.816100 -0.191500 -0.545300
vn -0.816100 -0.191500 0.545300
vn -0.962600 0.191500 0.191500
vn -0.820300 0.548100 -0.163200
vn -0.816100 0.191500 -0.545300
vn -0.545300 -0.191500 -0.816100
vn -0.545300 -0.191500 0.816100
vn -0.816100 0.191500 0.545300
vn -0.820300 0.548100 0.163200
vn -0.552200 0.826400 -0.109800
vn -0.695400 0.548100 -0.464700
vn -0.545300 0.191500 -0.816100
vn -0.191500 -0.191500 -0.962600
vn -0.191500 -0.191500 0.962600
vn -0.545300 0.191500 0.816100
vn -0.695400 0.548100 0.464700
vn -0.552200 0.826400 0.109800
vn -0.194900 0.980000 -0.038800
vn -0.468100 0.826400 -0.312800
vn -0.464700 0.548100 -0.695400
vn -0.191500 0.191500 -0.962600
vn 0.191500 -0.191500 -0.962600
vn 0.191500 -0.191500 0.962600
vn -0.191500 0.191500 0.962600
vn -0.464700 0.548100 0.695400
vn -0.468100 0.826400 0.312800
vn -0.194900 0.980000 0.038800
vn -0.165300 0.980000 -0.110400
vn -0.312800 0.826400 -0.468100
vn -0.163200 0.548100 -0.820300
vn 0.191500 0.191500 -0.962600
vn 0.545300 -0.191500 -0.816100
vn 0.545300 -0.191500 0.816100
vn 0.191500 0.191500 0.962600
vn -0.163200 0.548100 0.820300
vn -0.312800 0.826400 0.468100
vn -0.165300 0.980000 0.110400
vn -0.110400 0.980000 -0.165300
vn -0.109800 0.826400 -0.552200
vn 0.163200 0.548100 -0.820300
vn 0.545300 0.191500 -0.816100
vn 0.816100 -0.191500 -0.545300
vn 0.816100 -0.191500 0.545300
vn 0.545300 0.191500 0.816100
vn 0.163200 0.548100 0.820300
vn -0.109800 0.826400 0.552200
vn -0.110400 0.980000 0.165300
vn -0.038800 0.980000 -0.194900
vn 0.109800 0.826400 -0.552200
vn 0.464700 0.548100 -0.695400
vn 0.816100 0.191500 -0.545300
vn 0.962600 -0.191500 -0.191500
vn 0.962600 -0.191500 0.191500
vn 0.816100 0.191500 0.545300
vn 0.464700 0.548100 0.695400
vn 0.109800 0.826400 0.552200
vn -0.038800 0.980000 0.194900
vn 0.038800 0.980000 -0.194900
vn 0.312800 0.826400 -0.468100
vn 0.695400 0.548100 -0.464700
vn 0.962600 0.191500 -0.191500
vn 0.962600 0.191500 0.191500
vn 0.695400 0.548100 0.464700
vn 0.312800 0.826400 0.468100
vn 0.038800 0.980000 0.194900
vn 0.110400 0.980000 -0.165300
vn 0.468100 0.826400 -0.312800
vn 0.820300 0.548100 -0.163200
vn 0.820300 0.548100 0.163200
vn 0.468100 0.826400 0.312800
vn 0.110400 0.980000 0.165300
vn 0.165300 0.980000 -0.110400
vn 0.552200 0.826400 -0.109800
vn 0.552200 0.826400 0.109800
vn 0.165300 0.980000 0.110400
vn 0.194900 0.980000 -0.038800
vn 0.194900 0.980000 0.038800
vn -0.396600 0.700200 -0.593600
vn -0.593600 0.700200 -0.396600
vn 0.705600 0.705600 -0.064800
vn 0.872100 0.346200 0.345700
vn 0.707100 0.707100 0.000000
vn 0.423800 0.696600 0.579000
vn 0.297800 0.684800 0.665200
vn 0.475000 0.651000 0.592000
vn -0.274200 0.680000 0.680000
vn -0.415800 0.670100 0.614800
vn -0.572000 0.710400 0.409900
vn -0.706400 0.701100 0.097300
vn -0.700200 0.700200 -0.139300
vn -0.507000 -0.253500 -0.823800
vn -0.771200 -0.199900 0.604400
vn 0.000000 -0.184300 -0.982900
vn -0.474600 -0.206600 0.855600
vn 0.000000 -0.188800 -0.982000
vn -0.227100 -0.208000 0.951400
vn 0.114000 -0.193800 0.974400
vn 0.651800 -0.136400 -0.746100
vn 0.698500 -0.161700 0.697100
vn 0.943300 -0.170300 -0.285000
vn 0.771400 -0.187900 0.607900
vn 0.980800 -0.195100 0.000000
vn 0.943200 -0.162800 0.289700
s off
f 5//1 3//1 4//1
f 1//2 21//2 2//2
f 22//3 6//3 5//3
f 7//4 6//4 22//4
f 8//5 7//5 23//5
f 9//6 25//6 26//6
f 10//7 27//7 28//7
f 10//8 29//8 30//8
f 12//9 31//9 32//9
f 13//10 33//10 34//10
f 14//11 35//11 36//11
f 15//12 37//12 38//12
f 16//13 39//13 40//13
f 17//14 41//14 42//14
f 17//15 43//15 44//15
f 18//16 45//16 20//16
f 46//17 47//17 45//17
f 48//18 46//18 44//18
f 49//19 50//19 47//19
f 47//20 51//20 20//20
f 52//21 48//21 42//21
f 48//22 53//22 49//22
f 54//23 55//23 50//23
f 47//24 50//24 56//24
f 51//25 57//25 2//25
f 58//26 52//26 40//26
f 52//27 59//27 53//27
f 53//28 60//28 54//28
f 61//29 62//29 55//29
f 55//30 63//30 56//30
f 56//31 64//31 57//31
f 57//32 65//32 4//32
f 66//33 58//33 38//33
f 58//34 67//34 59//34
f 68//35 60//35 53//35
f 60//36 69//36 61//36
f 61//37 70//37 62//37
f 62//38 71//38 63//38
f 63//39 72//39 64//39
f 64//40 73//40 65//40
f 65//41 74//41 23//41
f 75//42 66//42 36//42
f 66//43 76//43 67//43
f 77//44 68//44 59//44
f 68//45 78//45 69//45
f 69//46 70//46 61//46
f 62//47 70//47 71//47
f 63//48 71//48 79//48
f 72//49 80//49 73//49
f 73//50 81//50 74//50
f 74//51 82//51 24//51
f 83//52 75//52 34//52
f 75//53 84//53 76//53
f 85//54 77//54 67//54
f 77//55 86//55 78//55
f 78//56 70//56 69//56
f 71//57 70//57 79//57
f 79//58 87//58 80//58
f 73//59 80//59 88//59
f 74//60 81//60 89//60
f 82//61 90//61 26//61
f 91//62 83//62 32//62
f 83//63 92//63 84//63
f 93//64 85//64 76//64
f 85//65 94//65 86//65
f 86//66 70//66 78//66
f 79//67 70//67 87//67
f 87//68 95//68 88//68
f 81//69 88//69 96//69
f 82//70 89//70 97//70
f 90//71 98//71 28//71
f 98//72 91//72 30//72
f 91//73 99//73 92//73
f 100//74 93//74 84//74
f 101//75 94//75 85//75
f 94//76 70//76 86//76
f 87//77 70//77 95//77
f 95//78 102//78 96//78
f 96//79 103//79 97//79
f 90//80 97//80 104//80
f 104//81 99//81 91//81
f 105//82 100//82 92//82
f 100//83 106//83 101//83
f 101//84 70//84 94//84
f 95//85 70//85 102//85
f 102//86 107//86 103//86
f 103//87 108//87 104//87
f 108//88 105//88 99//88
f 109//89 106//89 100//89
f 106//90 70//90 101//90
f 102//91 70//91 107//91
f 107//92 110//92 108//92
f 108//93 110//93 109//93
f 109//94 70//94 106//94
f 107//95 70//95 110//95
f 110//96 70//96 109//96
f 3//97 5//97 1//97
f 1//97 2//97 3//97
f 21//98 1//98 19//98
f 19//98 20//98 21//98
f 4//3 22//3 5//3
f 23//4 7//4 22//4
f 24//5 8//5 23//5
f 25//6 9//6 8//6
f 8//99 24//99 25//99
f 27//7 10//7 9//7
f 9//100 26//100 27//100
f 30//8 11//8 10//8
f 10//101 28//101 29//101
f 31//9 12//9 11//9
f 11//102 30//102 31//102
f 33//10 13//10 12//10
f 12//103 32//103 33//103
f 35//11 14//11 13//11
f 13//104 34//104 35//104
f 37//12 15//12 14//12
f 14//105 36//105 37//105
f 39//13 16//13 15//13
f 15//106 38//106 39//106
f 41//14 17//14 16//14
f 16//107 40//107 41//107
f 44//15 18//15 17//15
f 17//108 42//108 43//108
f 20//109 19//109 18//109
f 18//109 44//109 45//109
f 44//17 46//17 45//17
f 43//18 48//18 44//18
f 46//19 49//19 47//19
f 51//20 21//20 20//20
f 20//110 45//110 47//110
f 48//111 43//111 42//111
f 42//21 41//21 52//21
f 46//22 48//22 49//22
f 49//23 54//23 50//23
f 51//24 47//24 56//24
f 57//25 3//25 2//25
f 2//112 21//112 51//112
f 52//113 41//113 40//113
f 40//26 39//26 58//26
f 48//27 52//27 53//27
f 49//28 53//28 54//28
f 54//29 61//29 55//29
f 50//30 55//30 56//30
f 51//31 56//31 57//31
f 65//32 22//32 4//32
f 4//114 3//114 57//114
f 58//115 39//115 38//115
f 38//33 37//33 66//33
f 52//34 58//34 59//34
f 59//35 68//35 53//35
f 54//36 60//36 61//36
f 55//38 62//38 63//38
f 56//39 63//39 64//39
f 57//40 64//40 65//40
f 22//41 65//41 23//41
f 66//116 37//116 36//116
f 36//42 35//42 75//42
f 58//43 66//43 67//43
f 67//44 77//44 59//44
f 60//45 68//45 69//45
f 72//48 63//48 79//48
f 64//49 72//49 73//49
f 65//50 73//50 74//50
f 82//117 25//117 24//117
f 24//51 23//51 74//51
f 75//118 35//118 34//118
f 34//52 33//52 83//52
f 66//53 75//53 76//53
f 76//54 85//54 67//54
f 68//55 77//55 78//55
f 72//58 79//58 80//58
f 81//59 73//59 88//59
f 82//60 74//60 89//60
f 90//119 27//119 26//119
f 26//61 25//61 82//61
f 83//120 33//120 32//120
f 32//62 31//62 91//62
f 75//63 83//63 84//63
f 84//64 93//64 76//64
f 77//65 85//65 86//65
f 80//68 87//68 88//68
f 89//69 81//69 96//69
f 90//70 82//70 97//70
f 98//121 29//121 28//121
f 28//71 27//71 90//71
f 91//122 31//122 30//122
f 30//72 29//72 98//72
f 83//73 91//73 92//73
f 92//74 100//74 84//74
f 93//75 101//75 85//75
f 88//78 95//78 96//78
f 89//79 96//79 97//79
f 98//80 90//80 104//80
f 98//81 104//81 91//81
f 99//82 105//82 92//82
f 93//83 100//83 101//83
f 96//86 102//86 103//86
f 97//87 103//87 104//87
f 104//88 108//88 99//88
f 105//89 109//89 100//89
f 103//92 107//92 108//92
f 105//93 108//93 109//93
