# Blender v2.74 (sub 0) OBJ File: 'table2.blend'
# www.blender.org
v -20.100000 1.005000 20.099998
v -20.100000 1.005000 -20.100000
v 20.100002 1.005000 -20.099997
v 20.099993 1.005000 20.100008
v -20.100010 -1.005000 20.099989
v -20.099987 -1.005000 -20.100012
v 20.100008 -1.005000 -20.099993
v 20.099998 -1.005000 20.100000
vt 1.000000 0.000000
vt 0.000000 0.000000
vt 0.000000 1.000000
vt 1.125000 1.000000
vt 1.000000 1.000000
vt 1.000000 1.125000
vt -0.000000 1.125000
vt -0.125000 0.000000
vt -0.125000 1.000000
vt 1.000000 -0.125000
vt 0.000000 -0.125000
vt 1.125000 0.000000
vn 0.000000 -1.000000 -0.000000
vn 0.000000 1.000000 0.000000
vn 1.000000 0.000000 0.000000
vn -0.000000 0.000000 1.000000
vn -1.000000 -0.000000 -0.000000
vn 0.000000 0.000000 -1.000000
s off
f 2/1/1 3/2/1 4/3/1
f 8/3/2 7/2/2 6/1/2
f 5/4/3 6/5/3 2/1/3
f 6/6/4 7/7/4 3/3/4
f 3/8/5 7/9/5 8/3/5
f 1/10/6 4/11/6 8/2/6
f 1/5/1 2/1/1 4/3/1
f 5/5/2 8/3/2 6/1/2
f 1/12/3 5/4/3 2/1/3
f 2/5/4 6/6/4 3/3/4
f 4/2/5 3/8/5 8/3/5
f 5/1/6 1/10/6 8/2/6
